<?xml version="1.0" encoding="UTF-8"?>
<svg xmlns="http://www.w3.org/2000/svg" width="960" height="560" viewBox="0 0 960 560">
  <rect width="960" height="560" fill="#ffffff"/>
  <text x="90" y="24" font-size="20" font-family="Arial, sans-serif" font-weight="700" fill="#0f172a">Expected End Net Worth vs 10% CVaR Regret</text>
  <text x="90" y="44" font-size="12" font-family="Arial, sans-serif" fill="#475569">All sampled strategies. Highlighted labels follow the &quot;Private school&quot; objective.</text>
  <line x1="90" y1="490" x2="920" y2="490" stroke="#94a3b8"/>
  <line x1="90" y1="40" x2="90" y2="490" stroke="#94a3b8"/>
  
      <line x1="90" y1="40" x2="90" y2="490" stroke="#e2e8f0" stroke-dasharray="4 4"/>
      <line x1="90" y1="490" x2="920" y2="490" stroke="#e2e8f0" stroke-dasharray="4 4"/>
      <text x="90" y="512" text-anchor="middle" font-size="11" font-family="Arial, sans-serif" fill="#64748b">GBP 1.43m</text>
      <text x="80" y="494" text-anchor="end" font-size="11" font-family="Arial, sans-serif" fill="#64748b">GBP 457k</text>
    
      <line x1="297.5" y1="40" x2="297.5" y2="490" stroke="#e2e8f0" stroke-dasharray="4 4"/>
      <line x1="90" y1="377.5" x2="920" y2="377.5" stroke="#e2e8f0" stroke-dasharray="4 4"/>
      <text x="297.5" y="512" text-anchor="middle" font-size="11" font-family="Arial, sans-serif" fill="#64748b">GBP 1.76m</text>
      <text x="80" y="381.5" text-anchor="end" font-size="11" font-family="Arial, sans-serif" fill="#64748b">GBP 809k</text>
    
      <line x1="505" y1="40" x2="505" y2="490" stroke="#e2e8f0" stroke-dasharray="4 4"/>
      <line x1="90" y1="265" x2="920" y2="265" stroke="#e2e8f0" stroke-dasharray="4 4"/>
      <text x="505" y="512" text-anchor="middle" font-size="11" font-family="Arial, sans-serif" fill="#64748b">GBP 2.09m</text>
      <text x="80" y="269" text-anchor="end" font-size="11" font-family="Arial, sans-serif" fill="#64748b">GBP 1.16m</text>
    
      <line x1="712.4999999999998" y1="40" x2="712.4999999999998" y2="490" stroke="#e2e8f0" stroke-dasharray="4 4"/>
      <line x1="90" y1="152.49999999999994" x2="920" y2="152.49999999999994" stroke="#e2e8f0" stroke-dasharray="4 4"/>
      <text x="712.4999999999998" y="512" text-anchor="middle" font-size="11" font-family="Arial, sans-serif" fill="#64748b">GBP 2.43m</text>
      <text x="80" y="156.49999999999994" text-anchor="end" font-size="11" font-family="Arial, sans-serif" fill="#64748b">GBP 1.51m</text>
    
      <line x1="920" y1="40" x2="920" y2="490" stroke="#e2e8f0" stroke-dasharray="4 4"/>
      <line x1="90" y1="40" x2="920" y2="40" stroke="#e2e8f0" stroke-dasharray="4 4"/>
      <text x="920" y="512" text-anchor="middle" font-size="11" font-family="Arial, sans-serif" fill="#64748b">GBP 2.76m</text>
      <text x="80" y="44" text-anchor="end" font-size="11" font-family="Arial, sans-serif" fill="#64748b">GBP 1.87m</text>
    
  <polyline points="904.3417426869376,490 920,485.04243478197805" fill="none" stroke="#0f766e" stroke-width="2.5"/>
  <circle cx="606.3903790531014" cy="326.9471671889239" r="3" fill="#0f766e" opacity="0.55"/><circle cx="599.0430730810846" cy="321.527294628055" r="3" fill="#0f766e" opacity="0.55"/><circle cx="574.2930088808071" cy="302.6939174323096" r="3" fill="#0f766e" opacity="0.55"/><circle cx="567.6370943883433" cy="295.7969778558057" r="3" fill="#0f766e" opacity="0.55"/><circle cx="632.8591112509118" cy="338.3454787036195" r="3" fill="#0f766e" opacity="0.55"/><circle cx="626.951468475635" cy="335.91935603409695" r="3" fill="#0f766e" opacity="0.55"/><circle cx="644.997102381907" cy="341.93636864734754" r="3" fill="#0f766e" opacity="0.55"/><circle cx="648.4717140005171" cy="342.0505040688238" r="3" fill="#0f766e" opacity="0.55"/><circle cx="540.2777960223985" cy="265.28173672678633" r="3" fill="#0f766e" opacity="0.55"/><circle cx="545.9837444260668" cy="272.46681599557036" r="3" fill="#0f766e" opacity="0.55"/><circle cx="542.4210789275546" cy="296.0716454197832" r="3" fill="#0f766e" opacity="0.55"/><circle cx="654.5806884280036" cy="344.46220378053454" r="3" fill="#0f766e" opacity="0.55"/><circle cx="591.3213950496287" cy="311.88076361076236" r="3" fill="#2563eb" opacity="0.55"/><circle cx="578.5464575096508" cy="311.612460247885" r="3" fill="#0f766e" opacity="0.55"/><circle cx="656.9598377781193" cy="343.69768929343655" r="3" fill="#0f766e" opacity="0.55"/><circle cx="510.8656367252928" cy="274.41388590526753" r="3" fill="#0f766e" opacity="0.55"/><circle cx="661.5833479924972" cy="346.1051615953773" r="3" fill="#0f766e" opacity="0.55"/><circle cx="610.2025858271168" cy="321.0572761879936" r="3" fill="#0f766e" opacity="0.55"/><circle cx="524.6878526619366" cy="276.1395562502802" r="3" fill="#2563eb" opacity="0.55"/><circle cx="559.7844416328951" cy="266.9051229983069" r="3" fill="#2563eb" opacity="0.55"/><circle cx="548.5561278291054" cy="288.8189320009834" r="3" fill="#2563eb" opacity="0.55"/><circle cx="651.3639979162361" cy="340.912966623275" r="3" fill="#2563eb" opacity="0.55"/><circle cx="668.8891892474879" cy="347.32641326420367" r="3" fill="#2563eb" opacity="0.55"/><circle cx="518.3343087867531" cy="235.09254335580226" r="3" fill="#0f766e" opacity="0.55"/><circle cx="616.3241474049847" cy="326.4419513543419" r="3" fill="#2563eb" opacity="0.55"/><circle cx="611.6545606508439" cy="309.47185292983454" r="3" fill="#2563eb" opacity="0.55"/><circle cx="664.7875130537793" cy="345.30189636615523" r="3" fill="#0f766e" opacity="0.55"/><circle cx="523.4273444151329" cy="242.30633121751737" r="3" fill="#0f766e" opacity="0.55"/><circle cx="643.5348996592088" cy="328.6651869554415" r="3" fill="#2563eb" opacity="0.55"/><circle cx="669.4323213300188" cy="348.06374485336397" r="3" fill="#0f766e" opacity="0.55"/><circle cx="543.8155692928785" cy="265.36775798342535" r="3" fill="#2563eb" opacity="0.55"/><circle cx="586.5822426570596" cy="293.4218693914471" r="3" fill="#2563eb" opacity="0.55"/><circle cx="590.3137681497044" cy="284.8706143769636" r="3" fill="#2563eb" opacity="0.55"/><circle cx="533.7786358254622" cy="248.69644455043593" r="3" fill="#2563eb" opacity="0.55"/><circle cx="483.2402188188461" cy="253.63519856045056" r="3" fill="#2563eb" opacity="0.55"/><circle cx="520.4538275355089" cy="242.12351423880943" r="3" fill="#2563eb" opacity="0.55"/><circle cx="485.2852567805041" cy="248.2905115007245" r="3" fill="#0f766e" opacity="0.55"/><circle cx="499.58368303235477" cy="247.6638650711452" r="3" fill="#2563eb" opacity="0.55"/><circle cx="461.08449010817833" cy="242.5636029506304" r="3" fill="#2563eb" opacity="0.55"/><circle cx="649.1176300853772" cy="332.7108361409636" r="3" fill="#2563eb" opacity="0.55"/><circle cx="657.0348127019607" cy="335.2909962814326" r="3" fill="#2563eb" opacity="0.55"/><circle cx="657.8431441903592" cy="339.41583075706603" r="3" fill="#2563eb" opacity="0.55"/><circle cx="592.8885118188548" cy="309.73468746429063" r="3" fill="#2563eb" opacity="0.55"/><circle cx="576.0856975824604" cy="282.4982085845244" r="3" fill="#2563eb" opacity="0.55"/><circle cx="594.867172261529" cy="268.45954216112807" r="3" fill="#2563eb" opacity="0.55"/><circle cx="518.6786414904798" cy="248.26748235747377" r="3" fill="#2563eb" opacity="0.55"/><circle cx="600.718237681335" cy="295.5103241478296" r="3" fill="#2563eb" opacity="0.55"/><circle cx="579.6717407618482" cy="267.72647428665505" r="3" fill="#2563eb" opacity="0.55"/><circle cx="679.9657876407767" cy="343.40151065623877" r="3" fill="#2563eb" opacity="0.55"/><circle cx="609.7110050260674" cy="318.8919538252087" r="3" fill="#2563eb" opacity="0.55"/><circle cx="631.6708446840132" cy="327.27650458491337" r="3" fill="#0f766e" opacity="0.55"/><circle cx="633.6222616685344" cy="316.9109187649523" r="3" fill="#2563eb" opacity="0.55"/><circle cx="505.2685999595178" cy="241.91041489561067" r="3" fill="#2563eb" opacity="0.55"/><circle cx="575.7859641332851" cy="279.20018202164465" r="3" fill="#2563eb" opacity="0.55"/><circle cx="545.7806884686888" cy="228.3512230293628" r="5" fill="#2563eb" opacity="0.95"/><text x="553.7806884686888" y="220.3512230293628" font-size="11" font-family="Arial, sans-serif" fill="#0f172a">S049</text><circle cx="544.7459197299545" cy="268.7087183312969" r="3" fill="#2563eb" opacity="0.55"/><circle cx="483.85659411645804" cy="246.47238128432778" r="3" fill="#2563eb" opacity="0.55"/><circle cx="679.0167536147271" cy="350.7026852845287" r="3" fill="#0f766e" opacity="0.55"/><circle cx="639.6201384590375" cy="305.0008699787771" r="3" fill="#2563eb" opacity="0.55"/><circle cx="920" cy="485.04243478197805" r="3" fill="#2563eb" opacity="0.55"/><circle cx="904.3417426869376" cy="490" r="3" fill="#2563eb" opacity="0.55"/><circle cx="668.5838938372601" cy="338.44317650024084" r="3" fill="#2563eb" opacity="0.55"/><circle cx="638.8858760175871" cy="323.0547755919048" r="3" fill="#2563eb" opacity="0.55"/><circle cx="896.4441785367849" cy="482.4933166797721" r="3" fill="#2563eb" opacity="0.55"/><circle cx="522.6765430627406" cy="232.02274459942225" r="5" fill="#2563eb" opacity="0.95"/><text x="530.6765430627406" y="224.02274459942225" font-size="11" font-family="Arial, sans-serif" fill="#0f172a">S073</text><circle cx="684.3345751555725" cy="347.83619791604224" r="3" fill="#2563eb" opacity="0.55"/><circle cx="532.486599420117" cy="273.52095598367345" r="3" fill="#2563eb" opacity="0.55"/><circle cx="558.3944429272779" cy="234.7337791095187" r="3" fill="#2563eb" opacity="0.55"/><circle cx="668.381171930533" cy="330.86512757146903" r="3" fill="#2563eb" opacity="0.55"/><circle cx="520.9733205423756" cy="255.51904515706772" r="3" fill="#2563eb" opacity="0.55"/><circle cx="613.151766520907" cy="312.122375015176" r="3" fill="#2563eb" opacity="0.55"/><circle cx="503.960757212594" cy="225.83356076735242" r="5" fill="#2563eb" opacity="0.95"/><text x="511.960757212594" y="217.83356076735242" font-size="11" font-family="Arial, sans-serif" fill="#0f172a">S053</text><circle cx="604.57841687782" cy="301.0140369552281" r="3" fill="#2563eb" opacity="0.55"/><circle cx="676.2979588696825" cy="344.21249223329346" r="3" fill="#2563eb" opacity="0.55"/><circle cx="873.5709860224423" cy="466.7828275718665" r="3" fill="#2563eb" opacity="0.55"/><circle cx="497.42217692986407" cy="246.30849677587264" r="3" fill="#2563eb" opacity="0.55"/><circle cx="865.6734218723393" cy="460.1512422342505" r="3" fill="#2563eb" opacity="0.55"/><circle cx="529.1713353696648" cy="265.38557321458427" r="3" fill="#2563eb" opacity="0.55"/><circle cx="534.027087250593" cy="264.7205568623898" r="3" fill="#2563eb" opacity="0.55"/><circle cx="534.2144497201022" cy="254.20333989423537" r="3" fill="#2563eb" opacity="0.55"/><circle cx="690.2861020254607" cy="353.9785399105879" r="3" fill="#0f766e" opacity="0.55"/><circle cx="660.892666500032" cy="332.1547038497071" r="3" fill="#2563eb" opacity="0.55"/><circle cx="551.6760863138036" cy="290.3091155559423" r="3" fill="#2563eb" opacity="0.55"/><circle cx="683.4951785940549" cy="343.63898724642775" r="3" fill="#2563eb" opacity="0.55"/><circle cx="548.5903250438496" cy="270.635626136831" r="3" fill="#2563eb" opacity="0.55"/><circle cx="674.6134164903121" cy="347.96773876343735" r="3" fill="#0f766e" opacity="0.55"/><circle cx="399.2875059092899" cy="210.4726888673847" r="3" fill="#2563eb" opacity="0.55"/><circle cx="543.4310893265654" cy="271.59254898739846" r="3" fill="#2563eb" opacity="0.55"/><circle cx="602.0492919080416" cy="298.450333226086" r="3" fill="#2563eb" opacity="0.55"/><circle cx="510.48843613481705" cy="241.00466799841337" r="3" fill="#2563eb" opacity="0.55"/><circle cx="656.9019282122887" cy="328.0751935186879" r="3" fill="#2563eb" opacity="0.55"/><circle cx="481.69867967726816" cy="244.96797869776464" r="3" fill="#2563eb" opacity="0.55"/><circle cx="473.3660413022208" cy="229.3981932499329" r="3" fill="#2563eb" opacity="0.55"/><circle cx="595.5637002691003" cy="287.89113346204823" r="3" fill="#2563eb" opacity="0.55"/><circle cx="534.7847469650942" cy="256.137200615971" r="3" fill="#2563eb" opacity="0.55"/><circle cx="480.3862674429011" cy="231.69783107740272" r="3" fill="#2563eb" opacity="0.55"/><circle cx="656.7046514642376" cy="332.26677048675936" r="3" fill="#2563eb" opacity="0.55"/><circle cx="901.2363553233471" cy="387.9657467516989" r="3" fill="#2563eb" opacity="0.55"/><circle cx="702.7810966441912" cy="357.43835614894516" r="3" fill="#0f766e" opacity="0.55"/><circle cx="643.8254351556401" cy="312.1867220945884" r="3" fill="#2563eb" opacity="0.55"/><circle cx="881.2638870337198" cy="387.91426463624276" r="3" fill="#2563eb" opacity="0.55"/><circle cx="497.8967342315129" cy="214.826678866623" r="3" fill="#2563eb" opacity="0.55"/><circle cx="882.137749851286" cy="386.391722078208" r="3" fill="#2563eb" opacity="0.55"/><circle cx="640.9222203833498" cy="310.1205404159237" r="3" fill="#2563eb" opacity="0.55"/><circle cx="869.405178873102" cy="385.5099013736941" r="3" fill="#2563eb" opacity="0.55"/><circle cx="458.43213844863743" cy="220.31197846904183" r="3" fill="#2563eb" opacity="0.55"/><circle cx="458.4459118904824" cy="229.30677249604867" r="3" fill="#2563eb" opacity="0.55"/><circle cx="501.3444639795186" cy="206.42194641073104" r="3" fill="#0f766e" opacity="0.55"/><circle cx="538.1105517616388" cy="256.23678265898195" r="3" fill="#2563eb" opacity="0.55"/><circle cx="871.3004114442406" cy="368.6721914170222" r="3" fill="#2563eb" opacity="0.55"/><circle cx="870.4655986588966" cy="366.9340368497777" r="3" fill="#2563eb" opacity="0.55"/><circle cx="715.8707145903392" cy="360.46679475573325" r="3" fill="#0f766e" opacity="0.55"/><circle cx="855.8035715094741" cy="368.2511326982164" r="3" fill="#2563eb" opacity="0.55"/><circle cx="852.2018059721746" cy="366.98297730575246" r="3" fill="#2563eb" opacity="0.55"/><circle cx="851.3669931868342" cy="365.2033602923701" r="3" fill="#2563eb" opacity="0.55"/><circle cx="618.6906655071823" cy="292.05004999703965" r="3" fill="#2563eb" opacity="0.55"/><circle cx="839.4692349939799" cy="365.98822779215345" r="3" fill="#2563eb" opacity="0.55"/><circle cx="838.6344222086346" cy="364.15710979118455" r="3" fill="#2563eb" opacity="0.55"/><circle cx="645.9094890559571" cy="332.5914622246746" r="3" fill="#0f766e" opacity="0.55"/><circle cx="470.1889695848434" cy="217.24026501437902" r="3" fill="#2563eb" opacity="0.55"/><circle cx="464.9967214455899" cy="220.25679926046422" r="3" fill="#0f766e" opacity="0.55"/><circle cx="462.12207534740764" cy="211.5179993460692" r="5" fill="#2563eb" opacity="0.95"/><text x="470.12207534740764" y="203.5179993460692" font-size="11" font-family="Arial, sans-serif" fill="#0f172a">S086</text><circle cx="484.90124350590384" cy="208.12040018045644" r="5" fill="#2563eb" opacity="0.95"/><text x="492.90124350590384" y="200.12040018045644" font-size="11" font-family="Arial, sans-serif" fill="#0f172a">S071</text><circle cx="506.44044991899005" cy="214.2304902417311" r="3" fill="#0f766e" opacity="0.55"/><circle cx="841.3644675650887" cy="349.2111639721209" r="3" fill="#2563eb" opacity="0.55"/><circle cx="840.544445934328" cy="347.5056599691817" r="3" fill="#2563eb" opacity="0.55"/><circle cx="740.128583171061" cy="377.3996008762168" r="3" fill="#0f766e" opacity="0.55"/><circle cx="822.2659853914588" cy="347.40527327728904" r="3" fill="#2563eb" opacity="0.55"/><circle cx="821.4715195943112" cy="345.6774751137084" r="3" fill="#2563eb" opacity="0.55"/><circle cx="808.7401500222238" cy="344.4816449078822" r="3" fill="#2563eb" opacity="0.55"/><circle cx="744.5179165661918" cy="364.59355090256787" r="3" fill="#0f766e" opacity="0.55"/><circle cx="686.849719416817" cy="351.8647278437081" r="3" fill="#0f766e" opacity="0.55"/><circle cx="730.0276507976796" cy="362.6440162352516" r="3" fill="#0f766e" opacity="0.55"/><circle cx="811.6378124490045" cy="328.3021079948323" r="3" fill="#2563eb" opacity="0.55"/><circle cx="794.0367670905861" cy="331.52481336639903" r="3" fill="#2563eb" opacity="0.55"/><circle cx="715.3270015744929" cy="359.88798243561746" r="3" fill="#0f766e" opacity="0.55"/><circle cx="793.6713734816497" cy="326.74856830815776" r="3" fill="#2563eb" opacity="0.55"/><circle cx="700.7190727548241" cy="356.1184272912022" r="3" fill="#0f766e" opacity="0.55"/><circle cx="781.1682405689774" cy="325.4021795424291" r="3" fill="#2563eb" opacity="0.55"/><circle cx="658.8958560686899" cy="338.64474354692385" r="3" fill="#0f766e" opacity="0.55"/><circle cx="455.4534341950655" cy="196.10921086145618" r="3" fill="#2563eb" opacity="0.55"/><circle cx="643.3520599542322" cy="294.8638507697469" r="3" fill="#2563eb" opacity="0.55"/><circle cx="532.4062352022149" cy="315.74188335545665" r="3" fill="#2563eb" opacity="0.55"/><circle cx="684.0795274306707" cy="256.4383842105352" r="3" fill="#2563eb" opacity="0.55"/><circle cx="680.130544446578" cy="251.79548365262377" r="3" fill="#2563eb" opacity="0.55"/><circle cx="489.4441270171866" cy="179.84968277102337" r="3" fill="#0f766e" opacity="0.55"/><circle cx="450.15520945660353" cy="193.36986222948735" r="3" fill="#0f766e" opacity="0.55"/><circle cx="568.3074854762788" cy="257.4765343247843" r="3" fill="#2563eb" opacity="0.55"/><circle cx="444.403033649039" cy="249.80731360574006" r="3" fill="#2563eb" opacity="0.55"/><circle cx="345.2846623328953" cy="171.96606404399216" r="3" fill="#2563eb" opacity="0.55"/><circle cx="346.1774124426593" cy="159.68933421384378" r="3" fill="#2563eb" opacity="0.55"/><circle cx="350.3527622422667" cy="153.99757900602117" r="3" fill="#2563eb" opacity="0.55"/><circle cx="420.04540689817145" cy="174.0268248268398" r="3" fill="#2563eb" opacity="0.55"/><circle cx="499.9717451017377" cy="144.48250466545454" r="3" fill="#2563eb" opacity="0.55"/><circle cx="316.48184441403987" cy="190.664223676532" r="3" fill="#2563eb" opacity="0.55"/><circle cx="387.4018028252126" cy="162.4755933594513" r="3" fill="#2563eb" opacity="0.55"/><circle cx="457.0543693671242" cy="116.59222237297615" r="3" fill="#2563eb" opacity="0.55"/><circle cx="246.95840949589223" cy="123.51005992807887" r="3" fill="#2563eb" opacity="0.55"/><circle cx="267.1399921958076" cy="145.64411970472304" r="3" fill="#2563eb" opacity="0.55"/><circle cx="253.86374303505153" cy="108.22772117200958" r="3" fill="#2563eb" opacity="0.55"/><circle cx="239.119814844859" cy="107.88000166175601" r="3" fill="#2563eb" opacity="0.55"/><circle cx="182.7222828896273" cy="89.70372599199413" r="3" fill="#2563eb" opacity="0.55"/><circle cx="190.94935880032222" cy="77.31491846796962" r="3" fill="#2563eb" opacity="0.55"/><circle cx="209.78307536953255" cy="71.87897389938439" r="3" fill="#2563eb" opacity="0.55"/><circle cx="205.1536825241555" cy="67.49415257556126" r="3" fill="#2563eb" opacity="0.55"/><circle cx="102.59306547400458" cy="63.02810798706747" r="3" fill="#2563eb" opacity="0.55"/><circle cx="90" cy="40" r="3" fill="#2563eb" opacity="0.55"/>
  <text x="480" y="544" text-anchor="middle" font-size="12" font-family="Arial, sans-serif" fill="#334155">Weighted mean end net worth</text>
  <text x="18" y="280" transform="rotate(-90 18 280)" text-anchor="middle" font-size="12" font-family="Arial, sans-serif" fill="#334155">Weighted 10% CVaR regret</text>
  <rect x="740" y="40" width="180" height="56" rx="10" fill="#f8fafc" stroke="#cbd5e1"/>
  <circle cx="760" cy="60" r="5" fill="#0f766e"/>
  <text x="772" y="64" font-size="11" font-family="Arial, sans-serif" fill="#334155">One-home path</text>
  <circle cx="760" cy="80" r="5" fill="#2563eb"/>
  <text x="772" y="84" font-size="11" font-family="Arial, sans-serif" fill="#334155">Two-home path</text>
</svg>