<?xml version="1.0" encoding="UTF-8"?>
<svg xmlns="http://www.w3.org/2000/svg" width="960" height="560" viewBox="0 0 960 560">
  <rect width="960" height="560" fill="#ffffff"/>
  <text x="90" y="24" font-size="20" font-family="Arial, sans-serif" font-weight="700" fill="#0f172a">Expected End Net Worth vs 10% CVaR Regret</text>
  <text x="90" y="44" font-size="12" font-family="Arial, sans-serif" fill="#475569">Two-home paths only. Highlighted labels follow the &quot;Private school&quot; objective.</text>
  <line x1="90" y1="490" x2="920" y2="490" stroke="#94a3b8"/>
  <line x1="90" y1="40" x2="90" y2="490" stroke="#94a3b8"/>
  
      <line x1="90" y1="40" x2="90" y2="490" stroke="#e2e8f0" stroke-dasharray="4 4"/>
      <line x1="90" y1="490" x2="920" y2="490" stroke="#e2e8f0" stroke-dasharray="4 4"/>
      <text x="90" y="512" text-anchor="middle" font-size="11" font-family="Arial, sans-serif" fill="#64748b">GBP 1.62m</text>
      <text x="80" y="494" text-anchor="end" font-size="11" font-family="Arial, sans-serif" fill="#64748b">GBP 298k</text>
    
      <line x1="297.50000000000006" y1="40" x2="297.50000000000006" y2="490" stroke="#e2e8f0" stroke-dasharray="4 4"/>
      <line x1="90" y1="377.5" x2="920" y2="377.5" stroke="#e2e8f0" stroke-dasharray="4 4"/>
      <text x="297.50000000000006" y="512" text-anchor="middle" font-size="11" font-family="Arial, sans-serif" fill="#64748b">GBP 1.91m</text>
      <text x="80" y="381.5" text-anchor="end" font-size="11" font-family="Arial, sans-serif" fill="#64748b">GBP 632k</text>
    
      <line x1="504.9999999999999" y1="40" x2="504.9999999999999" y2="490" stroke="#e2e8f0" stroke-dasharray="4 4"/>
      <line x1="90" y1="265" x2="920" y2="265" stroke="#e2e8f0" stroke-dasharray="4 4"/>
      <text x="504.9999999999999" y="512" text-anchor="middle" font-size="11" font-family="Arial, sans-serif" fill="#64748b">GBP 2.19m</text>
      <text x="80" y="269" text-anchor="end" font-size="11" font-family="Arial, sans-serif" fill="#64748b">GBP 965k</text>
    
      <line x1="712.5" y1="40" x2="712.5" y2="490" stroke="#e2e8f0" stroke-dasharray="4 4"/>
      <line x1="90" y1="152.49999999999994" x2="920" y2="152.49999999999994" stroke="#e2e8f0" stroke-dasharray="4 4"/>
      <text x="712.5" y="512" text-anchor="middle" font-size="11" font-family="Arial, sans-serif" fill="#64748b">GBP 2.47m</text>
      <text x="80" y="156.49999999999994" text-anchor="end" font-size="11" font-family="Arial, sans-serif" fill="#64748b">GBP 1.30m</text>
    
      <line x1="920" y1="40" x2="920" y2="490" stroke="#e2e8f0" stroke-dasharray="4 4"/>
      <line x1="90" y1="40" x2="920" y2="40" stroke="#e2e8f0" stroke-dasharray="4 4"/>
      <text x="920" y="512" text-anchor="middle" font-size="11" font-family="Arial, sans-serif" fill="#64748b">GBP 2.75m</text>
      <text x="80" y="44" text-anchor="end" font-size="11" font-family="Arial, sans-serif" fill="#64748b">GBP 1.63m</text>
    
  <polyline points="920,490" fill="none" stroke="#0f766e" stroke-width="2.5"/>
  <circle cx="604.3650072773951" cy="330.4861050023854" r="3" fill="#2563eb" opacity="0.55"/><circle cx="521.4482282607422" cy="293.47857911513705" r="3" fill="#2563eb" opacity="0.55"/><circle cx="553.7721606736345" cy="307.65834398360454" r="3" fill="#2563eb" opacity="0.55"/><circle cx="474.04323428228264" cy="272.06092393742654" r="3" fill="#2563eb" opacity="0.55"/><circle cx="471.83925850945315" cy="268.3338565495311" r="3" fill="#2563eb" opacity="0.55"/><circle cx="441.75607458919905" cy="256.2337776977755" r="3" fill="#2563eb" opacity="0.55"/><circle cx="397.05782852352536" cy="237.12679042786436" r="3" fill="#2563eb" opacity="0.55"/><circle cx="632.675246628774" cy="342.753274304361" r="3" fill="#2563eb" opacity="0.55"/><circle cx="550.579441578498" cy="266.74569050136904" r="5" fill="#2563eb" opacity="0.95"/><text x="558.579441578498" y="258.74569050136904" font-size="11" font-family="Arial, sans-serif" fill="#0f172a">S077</text><circle cx="562.1480666691676" cy="306.46876808551536" r="3" fill="#2563eb" opacity="0.55"/><circle cx="526.9476219698479" cy="255.40125315599562" r="5" fill="#2563eb" opacity="0.95"/><text x="534.9476219698479" y="247.40125315599562" font-size="11" font-family="Arial, sans-serif" fill="#0f172a">S039</text><circle cx="365.6354160882951" cy="220.3955520686236" r="3" fill="#2563eb" opacity="0.55"/><circle cx="393.80964023337" cy="230.184589579291" r="3" fill="#2563eb" opacity="0.55"/><circle cx="477.46917880233525" cy="258.22871137268606" r="3" fill="#2563eb" opacity="0.55"/><circle cx="323.1459546634621" cy="203.02158146162674" r="3" fill="#2563eb" opacity="0.55"/><circle cx="509.4657225765121" cy="278.32544937777186" r="3" fill="#2563eb" opacity="0.55"/><circle cx="484.0062882907557" cy="267.049355791444" r="3" fill="#2563eb" opacity="0.55"/><circle cx="669.7638119766007" cy="353.78467183904706" r="3" fill="#2563eb" opacity="0.55"/><circle cx="430.4342494933742" cy="265.6761254564207" r="3" fill="#2563eb" opacity="0.55"/><circle cx="594.4480454425595" cy="299.22912179376203" r="5" fill="#2563eb" opacity="0.95"/><text x="602.4480454425595" y="291.22912179376203" font-size="11" font-family="Arial, sans-serif" fill="#0f172a">S073</text><circle cx="401.1498071803483" cy="219.93485137926325" r="3" fill="#2563eb" opacity="0.55"/><circle cx="589.4458071274116" cy="319.05027417699" r="3" fill="#2563eb" opacity="0.55"/><circle cx="587.5551641995389" cy="309.3777749840549" r="3" fill="#2563eb" opacity="0.55"/><circle cx="453.39081458669875" cy="245.93984517578144" r="3" fill="#2563eb" opacity="0.55"/><circle cx="650.7701613653368" cy="336.6788254051988" r="3" fill="#2563eb" opacity="0.55"/><circle cx="292.50714327764797" cy="185.73121064938613" r="3" fill="#2563eb" opacity="0.55"/><circle cx="319.0034866105631" cy="193.9344312787465" r="3" fill="#2563eb" opacity="0.55"/><circle cx="616.291104302104" cy="326.1896789116382" r="3" fill="#2563eb" opacity="0.55"/><circle cx="477.65568110535406" cy="243.28524417290532" r="5" fill="#2563eb" opacity="0.95"/><text x="485.65568110535406" y="235.28524417290532" font-size="11" font-family="Arial, sans-serif" fill="#0f172a">S087</text><circle cx="346.3997244113878" cy="196.89373666277857" r="3" fill="#2563eb" opacity="0.55"/><circle cx="432.65936360836145" cy="239.69178002627524" r="3" fill="#2563eb" opacity="0.55"/><circle cx="658.7598533929013" cy="345.74328608623995" r="3" fill="#2563eb" opacity="0.55"/><circle cx="515.5863640722355" cy="282.52514552368586" r="3" fill="#2563eb" opacity="0.55"/><circle cx="377.76943951427063" cy="208.38589780756553" r="3" fill="#2563eb" opacity="0.55"/><circle cx="520.7014766779505" cy="275.5617155040834" r="3" fill="#2563eb" opacity="0.55"/><circle cx="251.33625005393233" cy="168.56277151133747" r="3" fill="#2563eb" opacity="0.55"/><circle cx="409.0695225260789" cy="230.4169081354123" r="3" fill="#2563eb" opacity="0.55"/><circle cx="327.91266253512845" cy="184.69073181644956" r="3" fill="#2563eb" opacity="0.55"/><circle cx="496.19763064142" cy="264.48158465681865" r="3" fill="#2563eb" opacity="0.55"/><circle cx="495.2576924528539" cy="276.4471835447704" r="3" fill="#2563eb" opacity="0.55"/><circle cx="625.3697482037085" cy="314.2182188920699" r="3" fill="#2563eb" opacity="0.55"/><circle cx="619.1315411081277" cy="299.74806983947485" r="3" fill="#2563eb" opacity="0.55"/><circle cx="431.30306920279867" cy="235.95292698955112" r="3" fill="#2563eb" opacity="0.55"/><circle cx="674.2767673041083" cy="314.90840748209257" r="3" fill="#2563eb" opacity="0.55"/><circle cx="275.84409825464684" cy="163.12005889680069" r="3" fill="#2563eb" opacity="0.55"/><circle cx="265.123519812905" cy="159.90362629563464" r="3" fill="#2563eb" opacity="0.55"/><circle cx="316.23654925841913" cy="182.73246899066783" r="3" fill="#2563eb" opacity="0.55"/><circle cx="920" cy="490" r="3" fill="#2563eb" opacity="0.55"/><circle cx="919.4605503427407" cy="486.20447466147135" r="3" fill="#2563eb" opacity="0.55"/><circle cx="508.8876691459803" cy="275.33384408162806" r="3" fill="#2563eb" opacity="0.55"/><circle cx="904.0850975468453" cy="487.25377440741545" r="3" fill="#2563eb" opacity="0.55"/><circle cx="907.474792924699" cy="483.65401032967395" r="3" fill="#2563eb" opacity="0.55"/><circle cx="600.3154117804623" cy="273.66200773795873" r="3" fill="#2563eb" opacity="0.55"/><circle cx="504.7695426125837" cy="264.3935085492451" r="3" fill="#2563eb" opacity="0.55"/><circle cx="916.0089404559876" cy="474.79014183805185" r="3" fill="#2563eb" opacity="0.55"/><circle cx="673.0156241498227" cy="329.3097428654879" r="3" fill="#2563eb" opacity="0.55"/><circle cx="897.0071592634372" cy="474.55700026563864" r="3" fill="#2563eb" opacity="0.55"/><circle cx="653.9186210956302" cy="344.6240497814851" r="3" fill="#2563eb" opacity="0.55"/><circle cx="691.3164339644849" cy="358.06628486968157" r="3" fill="#2563eb" opacity="0.55"/><circle cx="421.46735772997357" cy="272.98044678338624" r="3" fill="#2563eb" opacity="0.55"/><circle cx="594.4491589197594" cy="274.7381841098512" r="3" fill="#2563eb" opacity="0.55"/><circle cx="358.8744750306933" cy="204.12695042993926" r="3" fill="#2563eb" opacity="0.55"/><circle cx="651.4326507793522" cy="342.2519801853441" r="3" fill="#2563eb" opacity="0.55"/><circle cx="305.1461873711686" cy="173.81072007767688" r="3" fill="#2563eb" opacity="0.55"/><circle cx="876.4923324588727" cy="459.04045987084373" r="3" fill="#2563eb" opacity="0.55"/><circle cx="537.1858144500006" cy="278.8969589659892" r="3" fill="#2563eb" opacity="0.55"/><circle cx="637.0107893847405" cy="286.59916136770573" r="3" fill="#2563eb" opacity="0.55"/><circle cx="457.3765593576642" cy="242.30389047815046" r="3" fill="#2563eb" opacity="0.55"/><circle cx="453.4518863682005" cy="231.63793018268603" r="5" fill="#2563eb" opacity="0.95"/><text x="461.4518863682005" y="223.63793018268603" font-size="11" font-family="Arial, sans-serif" fill="#0f172a">S065</text><circle cx="470.98222879597836" cy="233.0260334294896" r="3" fill="#2563eb" opacity="0.55"/><circle cx="874.8734140363408" cy="439.9080903520404" r="3" fill="#2563eb" opacity="0.55"/><circle cx="359.9233514695413" cy="235.14308297259055" r="3" fill="#2563eb" opacity="0.55"/><circle cx="356.3864460410741" cy="199.16812192093983" r="3" fill="#2563eb" opacity="0.55"/><circle cx="656.057131012937" cy="334.36908523821734" r="3" fill="#2563eb" opacity="0.55"/><circle cx="686.7907072299358" cy="350.36628482803746" r="3" fill="#2563eb" opacity="0.55"/><circle cx="337.0246914712537" cy="196.16528574771746" r="3" fill="#2563eb" opacity="0.55"/><circle cx="573.8899016267262" cy="296.7700471246229" r="3" fill="#2563eb" opacity="0.55"/><circle cx="897.4606956975268" cy="406.1761397992388" r="3" fill="#2563eb" opacity="0.55"/><circle cx="698.4049319780985" cy="354.3772433598725" r="3" fill="#2563eb" opacity="0.55"/><circle cx="879.0977280668299" cy="405.1986956305811" r="3" fill="#2563eb" opacity="0.55"/><circle cx="875.0980666724694" cy="405.8226653331895" r="3" fill="#2563eb" opacity="0.55"/><circle cx="865.3210654847619" cy="388.114569255026" r="3" fill="#2563eb" opacity="0.55"/><circle cx="206.11289938269982" cy="128.40994862080754" r="3" fill="#2563eb" opacity="0.55"/><circle cx="710.7218392104418" cy="353.64349826591405" r="3" fill="#2563eb" opacity="0.55"/><circle cx="861.4031554593539" cy="385.0958608333192" r="3" fill="#2563eb" opacity="0.55"/><circle cx="846.9580978540309" cy="387.1458370493002" r="3" fill="#2563eb" opacity="0.55"/><circle cx="842.9584364596661" cy="387.7559058640578" r="3" fill="#2563eb" opacity="0.55"/><circle cx="623.1902297310138" cy="290.29479964442703" r="3" fill="#2563eb" opacity="0.55"/><circle cx="195.57672409277853" cy="124.79023379749549" r="3" fill="#2563eb" opacity="0.55"/><circle cx="843.0401878286216" cy="384.13195409651763" r="3" fill="#2563eb" opacity="0.55"/><circle cx="839.0405264342855" cy="384.73410882122386" r="3" fill="#2563eb" opacity="0.55"/><circle cx="504.6751235660274" cy="212.9417571366206" r="3" fill="#2563eb" opacity="0.55"/><circle cx="728.9410726933361" cy="356.7439583599888" r="3" fill="#2563eb" opacity="0.55"/><circle cx="245.87797861076345" cy="148.7710125521789" r="3" fill="#2563eb" opacity="0.55"/><circle cx="671.7228652309599" cy="326.9507562041059" r="3" fill="#2563eb" opacity="0.55"/><circle cx="833.1820850334785" cy="370.0203145433403" r="3" fill="#2563eb" opacity="0.55"/><circle cx="829.3020142782312" cy="367.0365870322933" r="3" fill="#2563eb" opacity="0.55"/><circle cx="814.8191569716258" cy="369.0599630520963" r="3" fill="#2563eb" opacity="0.55"/><circle cx="810.8194955772542" cy="369.64538382680865" r="3" fill="#2563eb" opacity="0.55"/><circle cx="810.9463243915042" cy="366.087368350225" r="3" fill="#2563eb" opacity="0.55"/><circle cx="806.9467209935932" cy="366.6591381386105" r="3" fill="#2563eb" opacity="0.55"/><circle cx="447.81411186322475" cy="252.33289849038565" r="3" fill="#2563eb" opacity="0.55"/><circle cx="396.16109674105695" cy="196.82185571218366" r="3" fill="#2563eb" opacity="0.55"/><circle cx="585.978954178395" cy="305.44386207862317" r="3" fill="#2563eb" opacity="0.55"/><circle cx="799.910383875573" cy="351.174418784207" r="3" fill="#2563eb" opacity="0.55"/><circle cx="782.9382576452451" cy="350.76716286625594" r="3" fill="#2563eb" opacity="0.55"/><circle cx="778.9807500751391" cy="351.226151814987" r="3" fill="#2563eb" opacity="0.55"/><circle cx="404.1862113069818" cy="264.7207262346677" r="3" fill="#2563eb" opacity="0.55"/><circle cx="454.08675401248604" cy="212.48954604563238" r="3" fill="#2563eb" opacity="0.55"/><circle cx="508.5895029253381" cy="278.53307675545125" r="3" fill="#2563eb" opacity="0.55"/><circle cx="690.9624724681368" cy="285.17207157873736" r="3" fill="#2563eb" opacity="0.55"/><circle cx="364.3545115031095" cy="138.77029599730298" r="3" fill="#2563eb" opacity="0.55"/><circle cx="149.998582362935" cy="113.41271651430668" r="3" fill="#2563eb" opacity="0.55"/><circle cx="160.75961317099853" cy="107.21850048554393" r="3" fill="#2563eb" opacity="0.55"/><circle cx="274.64677819984263" cy="146.35696954988452" r="3" fill="#2563eb" opacity="0.55"/><circle cx="619.82386865879" cy="249.16348422240205" r="3" fill="#2563eb" opacity="0.55"/><circle cx="536.3273035637485" cy="274.9659418980533" r="3" fill="#2563eb" opacity="0.55"/><circle cx="217.24265445296416" cy="135.63157969684863" r="3" fill="#2563eb" opacity="0.55"/><circle cx="484.8118703457041" cy="266.271147331183" r="3" fill="#2563eb" opacity="0.55"/><circle cx="451.8497897841225" cy="239.10733349216622" r="3" fill="#2563eb" opacity="0.55"/><circle cx="197.42600252199713" cy="114.3336832096524" r="3" fill="#2563eb" opacity="0.55"/><circle cx="490.1344463060038" cy="178.75816747344072" r="3" fill="#2563eb" opacity="0.55"/><circle cx="390.56758510094863" cy="199.5335408181013" r="3" fill="#2563eb" opacity="0.55"/><circle cx="457.9067906122979" cy="166.06370752317332" r="3" fill="#2563eb" opacity="0.55"/><circle cx="352.16765054941055" cy="188.06265178413014" r="3" fill="#2563eb" opacity="0.55"/><circle cx="301.6945576532636" cy="170.57365707209323" r="3" fill="#2563eb" opacity="0.55"/><circle cx="301.4282736375866" cy="165.77724896633703" r="3" fill="#2563eb" opacity="0.55"/><circle cx="240.28379255053278" cy="120.05496390386128" r="3" fill="#2563eb" opacity="0.55"/><circle cx="302.1687660695791" cy="88.82180329898034" r="3" fill="#2563eb" opacity="0.55"/><circle cx="299.0549863114929" cy="82.86985644206106" r="3" fill="#2563eb" opacity="0.55"/><circle cx="169.03933785313444" cy="99.5644110774266" r="3" fill="#2563eb" opacity="0.55"/><circle cx="151.14431549755116" cy="90.64428762087931" r="3" fill="#2563eb" opacity="0.55"/><circle cx="118.57777966856504" cy="73.86518534711115" r="3" fill="#2563eb" opacity="0.55"/><circle cx="90" cy="40" r="3" fill="#2563eb" opacity="0.55"/>
  <text x="480" y="544" text-anchor="middle" font-size="12" font-family="Arial, sans-serif" fill="#334155">Weighted mean end net worth</text>
  <text x="18" y="280" transform="rotate(-90 18 280)" text-anchor="middle" font-size="12" font-family="Arial, sans-serif" fill="#334155">Weighted 10% CVaR regret</text>
  <rect x="740" y="40" width="180" height="56" rx="10" fill="#f8fafc" stroke="#cbd5e1"/>
  <circle cx="760" cy="60" r="5" fill="#0f766e"/>
  <text x="772" y="64" font-size="11" font-family="Arial, sans-serif" fill="#334155">One-home path</text>
  <circle cx="760" cy="80" r="5" fill="#2563eb"/>
  <text x="772" y="84" font-size="11" font-family="Arial, sans-serif" fill="#334155">Two-home path</text>
</svg>