<?xml version="1.0" encoding="UTF-8"?>
<svg xmlns="http://www.w3.org/2000/svg" width="960" height="560" viewBox="0 0 960 560">
  <rect width="960" height="560" fill="#ffffff"/>
  <text x="90" y="24" font-size="20" font-family="Arial, sans-serif" font-weight="700" fill="#0f172a">Expected End Net Worth vs 10% CVaR Regret</text>
  <text x="90" y="44" font-size="12" font-family="Arial, sans-serif" fill="#475569">One-home paths only. Highlighted labels follow the &quot;Cash savings at end&quot; objective.</text>
  <line x1="90" y1="490" x2="920" y2="490" stroke="#94a3b8"/>
  <line x1="90" y1="40" x2="90" y2="490" stroke="#94a3b8"/>
  
      <line x1="90" y1="40" x2="90" y2="490" stroke="#e2e8f0" stroke-dasharray="4 4"/>
      <line x1="90" y1="490" x2="920" y2="490" stroke="#e2e8f0" stroke-dasharray="4 4"/>
      <text x="90" y="512" text-anchor="middle" font-size="11" font-family="Arial, sans-serif" fill="#64748b">GBP 2.01m</text>
      <text x="80" y="494" text-anchor="end" font-size="11" font-family="Arial, sans-serif" fill="#64748b">GBP 809k</text>
    
      <line x1="297.4999999999999" y1="40" x2="297.4999999999999" y2="490" stroke="#e2e8f0" stroke-dasharray="4 4"/>
      <line x1="90" y1="377.5" x2="920" y2="377.5" stroke="#e2e8f0" stroke-dasharray="4 4"/>
      <text x="297.4999999999999" y="512" text-anchor="middle" font-size="11" font-family="Arial, sans-serif" fill="#64748b">GBP 2.12m</text>
      <text x="80" y="381.5" text-anchor="end" font-size="11" font-family="Arial, sans-serif" fill="#64748b">GBP 962k</text>
    
      <line x1="505.00000000000017" y1="40" x2="505.00000000000017" y2="490" stroke="#e2e8f0" stroke-dasharray="4 4"/>
      <line x1="90" y1="265" x2="920" y2="265" stroke="#e2e8f0" stroke-dasharray="4 4"/>
      <text x="505.00000000000017" y="512" text-anchor="middle" font-size="11" font-family="Arial, sans-serif" fill="#64748b">GBP 2.24m</text>
      <text x="80" y="269" text-anchor="end" font-size="11" font-family="Arial, sans-serif" fill="#64748b">GBP 1.11m</text>
    
      <line x1="712.4999999999998" y1="40" x2="712.4999999999998" y2="490" stroke="#e2e8f0" stroke-dasharray="4 4"/>
      <line x1="90" y1="152.5" x2="920" y2="152.5" stroke="#e2e8f0" stroke-dasharray="4 4"/>
      <text x="712.4999999999998" y="512" text-anchor="middle" font-size="11" font-family="Arial, sans-serif" fill="#64748b">GBP 2.36m</text>
      <text x="80" y="156.5" text-anchor="end" font-size="11" font-family="Arial, sans-serif" fill="#64748b">GBP 1.27m</text>
    
      <line x1="920" y1="40" x2="920" y2="490" stroke="#e2e8f0" stroke-dasharray="4 4"/>
      <line x1="90" y1="40" x2="920" y2="40" stroke="#e2e8f0" stroke-dasharray="4 4"/>
      <text x="920" y="512" text-anchor="middle" font-size="11" font-family="Arial, sans-serif" fill="#64748b">GBP 2.48m</text>
      <text x="80" y="44" text-anchor="end" font-size="11" font-family="Arial, sans-serif" fill="#64748b">GBP 1.42m</text>
    
  <polyline points="907.6485818874602,490 920,460.6317927324742" fill="none" stroke="#0f766e" stroke-width="2.5"/>
  <circle cx="530.6315229584598" cy="375.9809146012916" r="3" fill="#0f766e" opacity="0.55"/><circle cx="510.05624718630236" cy="364.3157001070043" r="3" fill="#0f766e" opacity="0.55"/><circle cx="439.9927362123413" cy="322.4114547581959" r="3" fill="#0f766e" opacity="0.55"/><circle cx="421.31634573782924" cy="307.2667093324691" r="3" fill="#0f766e" opacity="0.55"/><circle cx="588.8509360209799" cy="395.1799903807555" r="3" fill="#0f766e" opacity="0.55"/><circle cx="605.3315875955839" cy="400.31952093365567" r="3" fill="#0f766e" opacity="0.55"/><circle cx="639.60194613446" cy="407.8604611064406" r="3" fill="#0f766e" opacity="0.55"/><circle cx="649.2314797490774" cy="408.07247283412204" r="3" fill="#0f766e" opacity="0.55"/><circle cx="344.19463896405955" cy="237.680372534718" r="3" fill="#0f766e" opacity="0.55"/><circle cx="360.1983573209534" cy="253.58618535789236" r="3" fill="#0f766e" opacity="0.55"/><circle cx="350.13831061492056" cy="304.7967932817828" r="3" fill="#0f766e" opacity="0.55"/><circle cx="666.4773254161355" cy="413.36788962748324" r="3" fill="#0f766e" opacity="0.55"/><circle cx="452.01152205551904" cy="339.30290385792256" r="3" fill="#0f766e" opacity="0.55"/><circle cx="673.001970640194" cy="411.3844121415128" r="3" fill="#0f766e" opacity="0.55"/><circle cx="260.993168133444" cy="256.7188948750142" r="3" fill="#0f766e" opacity="0.55"/><circle cx="686.1295576214571" cy="416.94658269155605" r="3" fill="#0f766e" opacity="0.55"/><circle cx="541.4217397368488" cy="359.8806821344267" r="3" fill="#0f766e" opacity="0.55"/><circle cx="282.39645984850677" cy="167.46733858919208" r="3" fill="#0f766e" opacity="0.55"/><circle cx="695.0464337199844" cy="415.0646353228894" r="3" fill="#0f766e" opacity="0.55"/><circle cx="296.7154846217669" cy="183.62123661188002" r="3" fill="#0f766e" opacity="0.55"/><circle cx="708.2581274463371" cy="421.4562989928377" r="3" fill="#0f766e" opacity="0.55"/><circle cx="188.83430305126427" cy="197.68660304303916" r="3" fill="#0f766e" opacity="0.55"/><circle cx="601.7943694942692" cy="373.67215237145683" r="3" fill="#0f766e" opacity="0.55"/><circle cx="735.3621401135628" cy="427.8800255802969" r="3" fill="#0f766e" opacity="0.55"/><circle cx="767.2326580751759" cy="435.6685546343179" r="3" fill="#0f766e" opacity="0.55"/><circle cx="722.8432249794473" cy="421.552644823099" r="3" fill="#0f766e" opacity="0.55"/><circle cx="802.4160493441091" cy="443.80120666752106" r="3" fill="#0f766e" opacity="0.55"/><circle cx="234.4840169010084" cy="100.81737809346737" r="3" fill="#0f766e" opacity="0.55"/><circle cx="839.2439961676747" cy="450.9410183538483" r="5" fill="#0f766e" opacity="0.95"/><text x="847.2439961676747" y="442.9410183538483" font-size="11" font-family="Arial, sans-serif" fill="#0f172a">S014</text><circle cx="641.8333078726985" cy="386.0720819771376" r="3" fill="#0f766e" opacity="0.55"/><circle cx="131.8127416889353" cy="133.18434370875184" r="3" fill="#0f766e" opacity="0.55"/><circle cx="248.81495140573475" cy="118.15100883300937" r="3" fill="#0f766e" opacity="0.55"/><circle cx="907.6485818874602" cy="490" r="5" fill="#0f766e" opacity="0.95"/><text x="915.6485818874602" y="482" font-size="11" font-family="Arial, sans-serif" fill="#0f172a">S044</text><circle cx="920" cy="460.6317927324742" r="5" fill="#0f766e" opacity="0.95"/><text x="928" y="452.6317927324742" font-size="11" font-family="Arial, sans-serif" fill="#0f172a">S029</text><circle cx="859.9752979214556" cy="476.1415762939365" r="3" fill="#0f766e" opacity="0.55"/><circle cx="757.45675736131" cy="430.76823426999044" r="3" fill="#0f766e" opacity="0.55"/><circle cx="879.2421176653527" cy="456.1532893243682" r="5" fill="#0f766e" opacity="0.95"/><text x="887.2421176653527" y="448.1532893243682" font-size="11" font-family="Arial, sans-serif" fill="#0f172a">S028</text><circle cx="811.73317740829" cy="458.5303612911989" r="3" fill="#0f766e" opacity="0.55"/><circle cx="837.7075762333534" cy="449.6522558002759" r="5" fill="#0f766e" opacity="0.95"/><text x="845.7075762333534" y="441.6522558002759" font-size="11" font-family="Arial, sans-serif" fill="#0f172a">S027</text><circle cx="796.5458965591487" cy="440.74923444660385" r="3" fill="#0f766e" opacity="0.55"/><circle cx="764.2091238348291" cy="438.50516101601266" r="3" fill="#0f766e" opacity="0.55"/><circle cx="719.1952043965905" cy="418.2320737541109" r="3" fill="#0f766e" opacity="0.55"/><circle cx="678.4508881403084" cy="400.3397608091738" r="3" fill="#0f766e" opacity="0.55"/><circle cx="200.9428958130318" cy="40" r="3" fill="#0f766e" opacity="0.55"/><circle cx="90" cy="70.85379990055634" r="3" fill="#0f766e" opacity="0.55"/>
  <text x="480" y="544" text-anchor="middle" font-size="12" font-family="Arial, sans-serif" fill="#334155">Weighted mean end net worth</text>
  <text x="18" y="280" transform="rotate(-90 18 280)" text-anchor="middle" font-size="12" font-family="Arial, sans-serif" fill="#334155">Weighted 10% CVaR regret</text>
  <rect x="740" y="40" width="180" height="56" rx="10" fill="#f8fafc" stroke="#cbd5e1"/>
  <circle cx="760" cy="60" r="5" fill="#0f766e"/>
  <text x="772" y="64" font-size="11" font-family="Arial, sans-serif" fill="#334155">One-home path</text>
  <circle cx="760" cy="80" r="5" fill="#2563eb"/>
  <text x="772" y="84" font-size="11" font-family="Arial, sans-serif" fill="#334155">Two-home path</text>
</svg>