<?xml version="1.0" encoding="UTF-8"?>
<svg xmlns="http://www.w3.org/2000/svg" width="960" height="560" viewBox="0 0 960 560">
  <rect width="960" height="560" fill="#ffffff"/>
  <text x="90" y="24" font-size="20" font-family="Arial, sans-serif" font-weight="700" fill="#0f172a">Expected End Net Worth vs 10% CVaR Regret</text>
  <text x="90" y="44" font-size="12" font-family="Arial, sans-serif" fill="#475569">All sampled strategies. Further right is better expected wealth; lower is better downside regret.</text>
  <line x1="90" y1="490" x2="920" y2="490" stroke="#94a3b8"/>
  <line x1="90" y1="40" x2="90" y2="490" stroke="#94a3b8"/>
  
      <line x1="90" y1="40" x2="90" y2="490" stroke="#e2e8f0" stroke-dasharray="4 4"/>
      <line x1="90" y1="490" x2="920" y2="490" stroke="#e2e8f0" stroke-dasharray="4 4"/>
      <text x="90" y="512" text-anchor="middle" font-size="11" font-family="Arial, sans-serif" fill="#64748b">GBP 2.15m</text>
      <text x="80" y="494" text-anchor="end" font-size="11" font-family="Arial, sans-serif" fill="#64748b">GBP 398k</text>
    
      <line x1="297.5000000000001" y1="40" x2="297.5000000000001" y2="490" stroke="#e2e8f0" stroke-dasharray="4 4"/>
      <line x1="90" y1="377.5" x2="920" y2="377.5" stroke="#e2e8f0" stroke-dasharray="4 4"/>
      <text x="297.5000000000001" y="512" text-anchor="middle" font-size="11" font-family="Arial, sans-serif" fill="#64748b">GBP 2.31m</text>
      <text x="80" y="381.5" text-anchor="end" font-size="11" font-family="Arial, sans-serif" fill="#64748b">GBP 612k</text>
    
      <line x1="505.0000000000003" y1="40" x2="505.0000000000003" y2="490" stroke="#e2e8f0" stroke-dasharray="4 4"/>
      <line x1="90" y1="265" x2="920" y2="265" stroke="#e2e8f0" stroke-dasharray="4 4"/>
      <text x="505.0000000000003" y="512" text-anchor="middle" font-size="11" font-family="Arial, sans-serif" fill="#64748b">GBP 2.48m</text>
      <text x="80" y="269" text-anchor="end" font-size="11" font-family="Arial, sans-serif" fill="#64748b">GBP 826k</text>
    
      <line x1="712.4999999999998" y1="40" x2="712.4999999999998" y2="490" stroke="#e2e8f0" stroke-dasharray="4 4"/>
      <line x1="90" y1="152.5" x2="920" y2="152.5" stroke="#e2e8f0" stroke-dasharray="4 4"/>
      <text x="712.4999999999998" y="512" text-anchor="middle" font-size="11" font-family="Arial, sans-serif" fill="#64748b">GBP 2.65m</text>
      <text x="80" y="156.5" text-anchor="end" font-size="11" font-family="Arial, sans-serif" fill="#64748b">GBP 1.04m</text>
    
      <line x1="920" y1="40" x2="920" y2="490" stroke="#e2e8f0" stroke-dasharray="4 4"/>
      <line x1="90" y1="40" x2="920" y2="40" stroke="#e2e8f0" stroke-dasharray="4 4"/>
      <text x="920" y="512" text-anchor="middle" font-size="11" font-family="Arial, sans-serif" fill="#64748b">GBP 2.82m</text>
      <text x="80" y="44" text-anchor="end" font-size="11" font-family="Arial, sans-serif" fill="#64748b">GBP 1.25m</text>
    
  <polyline points="707.907727110674,490 803.9091393867096,488.62311686713304 829.6011048995173,487.6932462226684 920,477.1562602192249" fill="none" stroke="#0f766e" stroke-width="2.5"/>
  <circle cx="194.12159979083128" cy="166.5581614463128" r="5" fill="#2563eb" opacity="0.95"/><text x="202.12159979083128" y="158.5581614463128" font-size="11" font-family="Arial, sans-serif" fill="#0f172a">S020</text><circle cx="206.13018187969348" cy="154.77687868426312" r="5" fill="#2563eb" opacity="0.95"/><text x="214.13018187969348" y="146.77687868426312" font-size="11" font-family="Arial, sans-serif" fill="#0f172a">S019</text><circle cx="283.1163345771945" cy="109.53381836900371" r="5" fill="#0f766e" opacity="0.95"/><text x="291.1163345771945" y="101.53381836900371" font-size="11" font-family="Arial, sans-serif" fill="#0f172a">S174</text><circle cx="263.40699695521494" cy="211.78743923859685" r="5" fill="#2563eb" opacity="0.95"/><text x="271.40699695521494" y="203.78743923859685" font-size="11" font-family="Arial, sans-serif" fill="#0f172a">S008</text><circle cx="349.89923146785077" cy="94.66045591715448" r="5" fill="#2563eb" opacity="0.95"/><text x="357.89923146785077" y="86.66045591715448" font-size="11" font-family="Arial, sans-serif" fill="#0f172a">S050</text><circle cx="279.0902401458975" cy="236.58781069879976" r="5" fill="#2563eb" opacity="0.95"/><text x="287.0902401458975" y="228.58781069879976" font-size="11" font-family="Arial, sans-serif" fill="#0f172a">S004</text><circle cx="289.9483225707943" cy="224.2219883784768" r="5" fill="#2563eb" opacity="0.95"/><text x="297.9483225707943" y="216.2219883784768" font-size="11" font-family="Arial, sans-serif" fill="#0f172a">S003</text><circle cx="252.58340759671154" cy="224.2551717491765" r="5" fill="#2563eb" opacity="0.95"/><text x="260.58340759671154" y="216.2551717491765" font-size="11" font-family="Arial, sans-serif" fill="#0f172a">S009</text><circle cx="334.65939736143594" cy="93.5655698564587" r="5" fill="#2563eb" opacity="0.95"/><text x="342.65939736143594" y="85.5655698564587" font-size="11" font-family="Arial, sans-serif" fill="#0f172a">S051</text><circle cx="237.30163536570984" cy="177.96129050467516" r="5" fill="#2563eb" opacity="0.95"/><text x="245.30163536570984" y="169.96129050467516" font-size="11" font-family="Arial, sans-serif" fill="#0f172a">S016</text><circle cx="264.17179348983257" cy="191.02364484847362" r="3" fill="#2563eb" opacity="0.55"/><circle cx="236.89960580727816" cy="199.3943714278493" r="3" fill="#2563eb" opacity="0.55"/><circle cx="206.2260181160533" cy="177.43156392482837" r="3" fill="#2563eb" opacity="0.55"/><circle cx="301.2865623264115" cy="212.08422569869657" r="3" fill="#2563eb" opacity="0.55"/><circle cx="274.65705737038644" cy="199.4674147444439" r="3" fill="#2563eb" opacity="0.55"/><circle cx="291.1789387625698" cy="204.2450203717088" r="3" fill="#2563eb" opacity="0.55"/><circle cx="365.269831812598" cy="94.2915647733463" r="3" fill="#2563eb" opacity="0.55"/><circle cx="226.08816024913696" cy="211.91929537054727" r="3" fill="#2563eb" opacity="0.55"/><circle cx="203.5744030867044" cy="126.85824558758083" r="3" fill="#0f766e" opacity="0.55"/><circle cx="277.37246882342424" cy="180.64397307792046" r="3" fill="#2563eb" opacity="0.55"/><circle cx="250.37470016400724" cy="167.35263405344745" r="3" fill="#2563eb" opacity="0.55"/><circle cx="373.21796212329895" cy="93.71652125417086" r="3" fill="#2563eb" opacity="0.55"/><circle cx="248.1129830976486" cy="186.9639839390781" r="3" fill="#2563eb" opacity="0.55"/><circle cx="195.4349488349474" cy="190.32663256891658" r="3" fill="#2563eb" opacity="0.55"/><circle cx="304.51660287319146" cy="194.10263561402672" r="3" fill="#2563eb" opacity="0.55"/><circle cx="315.0504377371977" cy="93.29734760045784" r="3" fill="#2563eb" opacity="0.55"/><circle cx="352.8465428779346" cy="93.37556051912583" r="3" fill="#2563eb" opacity="0.55"/><circle cx="342.34120858684605" cy="77.28874004858915" r="3" fill="#2563eb" opacity="0.55"/><circle cx="352.5938129444483" cy="76.97783735333638" r="3" fill="#2563eb" opacity="0.55"/><circle cx="381.9490447793669" cy="91.40995318099402" r="3" fill="#2563eb" opacity="0.55"/><circle cx="378.11626059701604" cy="93.08254826046277" r="3" fill="#2563eb" opacity="0.55"/><circle cx="184.91175226310793" cy="203.05137714808507" r="3" fill="#2563eb" opacity="0.55"/><circle cx="328.11382856259354" cy="76.509296484851" r="3" fill="#2563eb" opacity="0.55"/><circle cx="168.9364965873533" cy="178.19664861018538" r="3" fill="#2563eb" opacity="0.55"/><circle cx="325.2425343469839" cy="202.31805922814692" r="3" fill="#2563eb" opacity="0.55"/><circle cx="381.81194268265597" cy="88.42077896767114" r="3" fill="#2563eb" opacity="0.55"/><circle cx="295.0787820224632" cy="95.96790510914428" r="3" fill="#2563eb" opacity="0.55"/><circle cx="363.49147259215977" cy="75.36853814458766" r="3" fill="#2563eb" opacity="0.55"/><circle cx="155.3412731110297" cy="40.437336268769286" r="3" fill="#0f766e" opacity="0.55"/><circle cx="356.90866373900803" cy="76.44190945472087" r="3" fill="#2563eb" opacity="0.55"/><circle cx="336.16107110579304" cy="92.07238261950062" r="3" fill="#2563eb" opacity="0.55"/><circle cx="428.4966600540023" cy="157.0330263118425" r="3" fill="#2563eb" opacity="0.55"/><circle cx="388.00347783565735" cy="88.37990931294809" r="3" fill="#2563eb" opacity="0.55"/><circle cx="432.2842002914224" cy="152.80266270168687" r="3" fill="#2563eb" opacity="0.55"/><circle cx="365.41461585839454" cy="72.64973470322855" r="3" fill="#2563eb" opacity="0.55"/><circle cx="158.35088213159722" cy="190.8315042701496" r="3" fill="#2563eb" opacity="0.55"/><circle cx="343.7370732576343" cy="58.717739466796274" r="3" fill="#2563eb" opacity="0.55"/><circle cx="425.3830471192391" cy="158.0756151806417" r="3" fill="#2563eb" opacity="0.55"/><circle cx="142.4702211704101" cy="166.01790582115774" r="3" fill="#2563eb" opacity="0.55"/><circle cx="433.6788322277135" cy="153.95847416085485" r="3" fill="#2563eb" opacity="0.55"/><circle cx="414.9540123777764" cy="165.33248127767558" r="3" fill="#2563eb" opacity="0.55"/><circle cx="435.3577717196945" cy="149.73079668594585" r="3" fill="#2563eb" opacity="0.55"/><circle cx="435.0415264476514" cy="164.28572351608653" r="3" fill="#2563eb" opacity="0.55"/><circle cx="371.2987834624617" cy="72.65860203119888" r="3" fill="#2563eb" opacity="0.55"/><circle cx="436.8599736277898" cy="150.59038720042787" r="3" fill="#2563eb" opacity="0.55"/><circle cx="440.30104011091555" cy="160.07239771594925" r="3" fill="#2563eb" opacity="0.55"/><circle cx="338.9199778064195" cy="191.94137421606064" r="3" fill="#2563eb" opacity="0.55"/><circle cx="131.81390860519275" cy="178.52606181318532" r="3" fill="#2563eb" opacity="0.55"/><circle cx="443.69371026264815" cy="157.18692341735624" r="3" fill="#2563eb" opacity="0.55"/><circle cx="416.3158051954165" cy="157.08273473935424" r="3" fill="#2563eb" opacity="0.55"/><circle cx="395.38042487881546" cy="96.46623987995491" r="3" fill="#2563eb" opacity="0.55"/><circle cx="440.6570620330321" cy="148.44958464759094" r="3" fill="#2563eb" opacity="0.55"/><circle cx="365.52238059844257" cy="172.49619243431516" r="3" fill="#2563eb" opacity="0.55"/><circle cx="433.63659963901875" cy="155.08967552705383" r="3" fill="#2563eb" opacity="0.55"/><circle cx="439.3076801371848" cy="147.72864301686718" r="3" fill="#2563eb" opacity="0.55"/><circle cx="392.83487855921817" cy="85.36107565853086" r="3" fill="#2563eb" opacity="0.55"/><circle cx="400.69851831177715" cy="164.37330069773867" r="3" fill="#2563eb" opacity="0.55"/><circle cx="920" cy="477.1562602192249" r="3" fill="#0f766e" opacity="0.55"/><circle cx="910.8581192028194" cy="476.35888657721665" r="3" fill="#0f766e" opacity="0.55"/><circle cx="429.3604900969653" cy="164.7392286213452" r="3" fill="#2563eb" opacity="0.55"/><circle cx="438.13234660765283" cy="151.23592085505214" r="3" fill="#2563eb" opacity="0.55"/><circle cx="893.4598572550149" cy="475.46578444327093" r="3" fill="#0f766e" opacity="0.55"/><circle cx="447.9404383668137" cy="155.60620562958445" r="3" fill="#2563eb" opacity="0.55"/><circle cx="381.9431075343132" cy="109.76601871891194" r="3" fill="#0f766e" opacity="0.55"/><circle cx="829.6011048995173" cy="487.6932462226684" r="3" fill="#0f766e" opacity="0.55"/><circle cx="823.0029098020373" cy="484.7425366143968" r="3" fill="#0f766e" opacity="0.55"/><circle cx="355.18341341759987" cy="91.4012576629047" r="3" fill="#2563eb" opacity="0.55"/><circle cx="810.7314611902744" cy="486.7395107762642" r="3" fill="#0f766e" opacity="0.55"/><circle cx="814.4689717722581" cy="484.98545715988183" r="3" fill="#0f766e" opacity="0.55"/><circle cx="803.9091393867096" cy="488.62311686713304" r="3" fill="#0f766e" opacity="0.55"/><circle cx="797.8700922904912" cy="485.11655705250723" r="3" fill="#0f766e" opacity="0.55"/><circle cx="399.442328232178" cy="91.45201043482069" r="3" fill="#2563eb" opacity="0.55"/><circle cx="382.3278675033221" cy="91.56509880014687" r="3" fill="#2563eb" opacity="0.55"/><circle cx="725.0823006132808" cy="483.8853040167695" r="3" fill="#0f766e" opacity="0.55"/><circle cx="707.907727110674" cy="490" r="3" fill="#0f766e" opacity="0.55"/><circle cx="735.7508752976473" cy="479.69655838142756" r="3" fill="#0f766e" opacity="0.55"/><circle cx="742.87784675286" cy="472.3842826732347" r="3" fill="#0f766e" opacity="0.55"/><circle cx="716.9859280334693" cy="479.4258984869865" r="3" fill="#0f766e" opacity="0.55"/><circle cx="724.5016060083955" cy="470.2847509101443" r="3" fill="#0f766e" opacity="0.55"/><circle cx="369.93317091032935" cy="99.06984648208828" r="3" fill="#2563eb" opacity="0.55"/><circle cx="393.7460626496944" cy="87.37298985638728" r="3" fill="#2563eb" opacity="0.55"/><circle cx="403.1486144858873" cy="155.1470844382912" r="3" fill="#2563eb" opacity="0.55"/><circle cx="393.20119532320075" cy="98.23980909494253" r="3" fill="#2563eb" opacity="0.55"/><circle cx="397.3561621163461" cy="81.36043855805468" r="3" fill="#2563eb" opacity="0.55"/><circle cx="346.61919475831877" cy="259.39379154513057" r="3" fill="#2563eb" opacity="0.55"/><circle cx="648.0868650029497" cy="427.70454378468355" r="3" fill="#0f766e" opacity="0.55"/><circle cx="354.1354055921576" cy="182.55667681763737" r="3" fill="#2563eb" opacity="0.55"/><circle cx="358.7459739341772" cy="248.60391278333262" r="3" fill="#2563eb" opacity="0.55"/><circle cx="614.8908227497209" cy="429.38216090351864" r="3" fill="#0f766e" opacity="0.55"/><circle cx="397.9470606771881" cy="80.07013437191506" r="3" fill="#2563eb" opacity="0.55"/><circle cx="653.6269819440619" cy="411.99957722253095" r="3" fill="#0f766e" opacity="0.55"/><circle cx="371.64845969796903" cy="238.38053253998552" r="3" fill="#2563eb" opacity="0.55"/><circle cx="384.1040006976285" cy="166.8831535311199" r="3" fill="#2563eb" opacity="0.55"/><circle cx="626.5345240542816" cy="415.1577641706798" r="3" fill="#0f766e" opacity="0.55"/><circle cx="418.2137086474652" cy="163.1041240567564" r="3" fill="#2563eb" opacity="0.55"/><circle cx="400.78387089613545" cy="93.45932856076689" r="3" fill="#2563eb" opacity="0.55"/><circle cx="404.97951779166465" cy="88.2099876618883" r="3" fill="#2563eb" opacity="0.55"/><circle cx="659.6961289479191" cy="398.24456001247074" r="3" fill="#0f766e" opacity="0.55"/><circle cx="644.8447382081338" cy="402.4853254427742" r="3" fill="#0f766e" opacity="0.55"/><circle cx="364.0841097676449" cy="233.7720096564512" r="3" fill="#2563eb" opacity="0.55"/><circle cx="440.2544444967944" cy="162.51300276538268" r="3" fill="#2563eb" opacity="0.55"/><circle cx="397.7358757273026" cy="82.78790792488633" r="3" fill="#2563eb" opacity="0.55"/><circle cx="379.3825512795558" cy="226.0664128782813" r="3" fill="#2563eb" opacity="0.55"/><circle cx="90" cy="169.44994373331195" r="3" fill="#2563eb" opacity="0.55"/><circle cx="385.4720826228042" cy="228.96652410201995" r="3" fill="#2563eb" opacity="0.55"/><circle cx="373.4823209555664" cy="272.0920525842495" r="3" fill="#2563eb" opacity="0.55"/><circle cx="446.45015369782686" cy="158.60671809928903" r="3" fill="#2563eb" opacity="0.55"/><circle cx="385.863029038451" cy="261.6493158955568" r="3" fill="#2563eb" opacity="0.55"/><circle cx="462.29567664955465" cy="156.38125565450878" r="3" fill="#2563eb" opacity="0.55"/><circle cx="399.038192613864" cy="251.81960707556345" r="3" fill="#2563eb" opacity="0.55"/><circle cx="426.58018075259804" cy="246.61180893184908" r="3" fill="#2563eb" opacity="0.55"/><circle cx="391.935326596575" cy="247.93313154823426" r="3" fill="#2563eb" opacity="0.55"/><circle cx="450.50128783576014" cy="156.31745446735545" r="3" fill="#2563eb" opacity="0.55"/><circle cx="413.2475233051666" cy="242.95917311105674" r="3" fill="#2563eb" opacity="0.55"/><circle cx="407.58597239195467" cy="240.7486042992918" r="3" fill="#2563eb" opacity="0.55"/><circle cx="454.8795101725686" cy="235.20325011850204" r="3" fill="#2563eb" opacity="0.55"/><circle cx="423.85528166593787" cy="234.41816970542595" r="3" fill="#2563eb" opacity="0.55"/><circle cx="476.72151791062754" cy="232.21627098425955" r="3" fill="#2563eb" opacity="0.55"/><circle cx="419.68856328454365" cy="233.71179043615973" r="3" fill="#2563eb" opacity="0.55"/><circle cx="436.80150021780753" cy="229.9385642817541" r="3" fill="#2563eb" opacity="0.55"/><circle cx="440.5289658763178" cy="229.25949345609342" r="3" fill="#2563eb" opacity="0.55"/><circle cx="484.5616929688637" cy="227.90074628627502" r="3" fill="#2563eb" opacity="0.55"/><circle cx="442.62505259737856" cy="239.75757237354225" r="3" fill="#2563eb" opacity="0.55"/><circle cx="428.50708611605035" cy="235.1659531271197" r="3" fill="#2563eb" opacity="0.55"/><circle cx="469.2634532698076" cy="232.25564316415586" r="3" fill="#2563eb" opacity="0.55"/><circle cx="485.18314906971096" cy="229.14213875978544" r="3" fill="#2563eb" opacity="0.55"/><circle cx="455.6293238283963" cy="155.58402744634782" r="3" fill="#2563eb" opacity="0.55"/><circle cx="570.3113871632795" cy="345.5193026891036" r="3" fill="#0f766e" opacity="0.55"/><circle cx="406.23681805288516" cy="80.39171646617854" r="3" fill="#2563eb" opacity="0.55"/><circle cx="474.20464033420154" cy="160.0863533511972" r="3" fill="#2563eb" opacity="0.55"/><circle cx="481.70871535295475" cy="230.03995712061067" r="3" fill="#2563eb" opacity="0.55"/><circle cx="532.2227210915921" cy="350.74621846881234" r="3" fill="#0f766e" opacity="0.55"/><circle cx="444.42918203941235" cy="228.478799393815" r="3" fill="#2563eb" opacity="0.55"/><circle cx="459.4221407878025" cy="234.36943377127108" r="3" fill="#2563eb" opacity="0.55"/><circle cx="587.8693123224984" cy="330.31300202051864" r="3" fill="#0f766e" opacity="0.55"/><circle cx="408.9044193750902" cy="80.74575870375662" r="3" fill="#2563eb" opacity="0.55"/><circle cx="473.3614659235324" cy="159.60395360630537" r="3" fill="#2563eb" opacity="0.55"/><circle cx="601.6045718136147" cy="319.40310429892986" r="3" fill="#0f766e" opacity="0.55"/><circle cx="462.60534957997834" cy="156.28120750716567" r="3" fill="#2563eb" opacity="0.55"/><circle cx="404.44256863710586" cy="80.52077291633668" r="3" fill="#2563eb" opacity="0.55"/><circle cx="576.2299905866554" cy="324.7410168203405" r="3" fill="#0f766e" opacity="0.55"/><circle cx="415.11580247507857" cy="88.3425596304449" r="3" fill="#2563eb" opacity="0.55"/><circle cx="539.1598887660107" cy="330.0505957577786" r="3" fill="#0f766e" opacity="0.55"/><circle cx="486.8212316626898" cy="164.93469268595754" r="3" fill="#2563eb" opacity="0.55"/><circle cx="462.3818368807913" cy="149.46625751695336" r="3" fill="#2563eb" opacity="0.55"/><circle cx="475.9315720792832" cy="154.81751619856055" r="3" fill="#2563eb" opacity="0.55"/><circle cx="475.8107136465507" cy="230.88988195395984" r="3" fill="#2563eb" opacity="0.55"/><circle cx="472.69854989299205" cy="159.03003156561977" r="3" fill="#2563eb" opacity="0.55"/><circle cx="420.15058839880743" cy="84.07353938148896" r="3" fill="#2563eb" opacity="0.55"/><circle cx="474.9342459116864" cy="153.98556035705747" r="3" fill="#2563eb" opacity="0.55"/><circle cx="430.0253564380133" cy="93.04000026584606" r="3" fill="#2563eb" opacity="0.55"/><circle cx="573.9494909310843" cy="264.0130043001435" r="3" fill="#0f766e" opacity="0.55"/><circle cx="416.4273314813651" cy="82.49520757627107" r="3" fill="#2563eb" opacity="0.55"/><circle cx="543.2801135890625" cy="259.80536789816813" r="3" fill="#0f766e" opacity="0.55"/><circle cx="494.7901236194315" cy="260.48689369570536" r="3" fill="#0f766e" opacity="0.55"/><circle cx="513.388366436335" cy="250.31282419470827" r="3" fill="#0f766e" opacity="0.55"/><circle cx="445.74164154339707" cy="274.14212098610096" r="3" fill="#0f766e" opacity="0.55"/><circle cx="407.29618588873564" cy="99.07269022498718" r="3" fill="#0f766e" opacity="0.55"/><circle cx="564.0682669001925" cy="227.357619455215" r="3" fill="#0f766e" opacity="0.55"/><circle cx="467.61380644055504" cy="254.70733894229323" r="3" fill="#0f766e" opacity="0.55"/><circle cx="558.0828266078034" cy="200.35793125141333" r="3" fill="#0f766e" opacity="0.55"/><circle cx="497.46416938865593" cy="157.5327625598469" r="3" fill="#0f766e" opacity="0.55"/><circle cx="516.9492246525655" cy="204.30569404100294" r="3" fill="#0f766e" opacity="0.55"/><circle cx="548.0905194483726" cy="170.2652249676015" r="3" fill="#0f766e" opacity="0.55"/><circle cx="432.34718050377694" cy="182.01388887664257" r="3" fill="#0f766e" opacity="0.55"/><circle cx="453.14089964696973" cy="170.82344361028316" r="3" fill="#0f766e" opacity="0.55"/><circle cx="392.75271217865617" cy="185.40797268500853" r="3" fill="#0f766e" opacity="0.55"/><circle cx="332.5958019291741" cy="195.9576883286993" r="3" fill="#0f766e" opacity="0.55"/><circle cx="375.21906335146974" cy="40" r="3" fill="#0f766e" opacity="0.55"/>
  <text x="480" y="544" text-anchor="middle" font-size="12" font-family="Arial, sans-serif" fill="#334155">Weighted mean end net worth</text>
  <text x="18" y="280" transform="rotate(-90 18 280)" text-anchor="middle" font-size="12" font-family="Arial, sans-serif" fill="#334155">Weighted 10% CVaR regret</text>
  <rect x="740" y="40" width="180" height="56" rx="10" fill="#f8fafc" stroke="#cbd5e1"/>
  <circle cx="760" cy="60" r="5" fill="#0f766e"/>
  <text x="772" y="64" font-size="11" font-family="Arial, sans-serif" fill="#334155">One-home path</text>
  <circle cx="760" cy="80" r="5" fill="#2563eb"/>
  <text x="772" y="84" font-size="11" font-family="Arial, sans-serif" fill="#334155">Two-home path</text>
</svg>